<svg width="80" height="89" viewBox="0 0 80 89" fill="none" xmlns="http://www.w3.org/2000/svg">
<circle cx="39.7743" cy="53.9513" r="35.0487" fill="#F7F3ED"/>
<mask id="mask0" mask-type="alpha" maskUnits="userSpaceOnUse" x="0" y="0" width="80" height="89">
<ellipse cx="39.7743" cy="44.5" rx="39.7743" ry="44.5" fill="#C9DEFF"/>
</mask>
<g mask="url(#mask0)">
<path d="M41.5678 52.4394C40.5385 55.6407 38.5761 58.4605 36.3941 61.0352C32.9769 65.0675 28.5854 68.7592 23.4529 69.7264C22.849 69.8354 22.2315 69.9171 21.6002 69.958C21.2708 69.9716 20.8866 69.958 20.667 69.7128C20.4886 69.4948 20.4886 69.1815 20.516 68.909C20.7082 66.0892 21.1748 63.2965 21.9021 60.572C23.2058 55.6815 25.3467 51.009 28.2149 46.8133C29.3539 45.1513 31.0831 42.059 32.922 41.0918C32.9495 41.0782 32.9769 41.0645 33.0044 41.0509C34.5551 40.2881 38.233 40.0565 39.674 41.0101C40.2778 41.4187 40.7032 42.0317 41.0326 42.6584C42.6108 45.6009 42.5971 49.2381 41.5678 52.4394Z" fill="#F6F5F5"/>
<path d="M59.9972 68.1464C59.9835 68.7867 59.9012 69.5087 59.3797 69.8901C58.9405 70.2034 58.323 70.1489 57.8015 70.0127C55.4273 69.4269 53.4923 67.7105 51.9278 65.8578C48.4147 61.6893 46.2875 56.431 45.7798 51.0229C45.6013 49.0476 45.0799 45.1924 46.4385 43.5441C46.6718 43.2716 46.9188 43.0673 47.1933 42.9311C48.497 42.2772 50.185 43.0537 51.1044 44.1162C53.3551 46.7182 55.0568 50.3554 56.4977 53.4477C58.2269 57.1666 59.4895 61.1444 59.8737 65.2039C59.9698 66.1712 60.0109 67.152 59.9972 68.1464Z" fill="#F6F5F5"/>
<path d="M55.1948 100.84C53.7127 101.549 51.4346 101.385 49.8152 101.467C46.4667 101.644 43.1731 101.426 39.8246 101.317C38.96 101.29 38.0268 101.276 37.0662 101.222C35.4605 100.296 33.8686 99.3828 32.4414 98.6608C30.8357 97.8299 29.4497 97.2168 28.489 97.0125C28.0499 96.9171 27.4186 96.7809 26.6912 96.6038C26.7736 95.3642 26.3344 93.784 26.4168 92.8031C26.5815 90.8551 26.7324 88.8935 27.1167 86.9727C27.446 85.3925 27.7891 83.8259 28.3106 82.2865C28.8595 80.6927 28.9968 79.7664 30.8906 79.6029C34.2529 79.3032 37.67 80.2295 41.0322 80.3249C42.8575 80.3794 44.6964 80.4747 46.4804 80.7336C47.1117 80.8289 47.743 80.9379 48.3606 81.0878C49.3898 81.3193 50.8994 80.5156 51.7091 81.1695C52.5188 81.8234 53.1912 84.3027 53.5343 85.2154C55.0164 89.2613 55.3321 93.4706 55.9085 97.6664C56.1006 99.0559 56.5672 100.187 55.1948 100.84Z" fill="#E86538"/>
<path opacity="0.42" d="M41.5681 52.4395C40.5388 55.6408 38.5764 58.4607 36.3943 61.0354C32.9772 65.0676 28.5857 68.7594 23.4531 69.7266C23.2198 64.7407 24.2079 59.7276 25.9233 55.0142C27.3643 51.0637 29.2993 47.3174 31.4539 43.7075C31.9479 42.8901 32.442 41.9638 32.9772 41.0238C34.5279 40.261 38.2058 40.0294 39.6468 40.983C40.2506 41.3916 40.676 42.0046 41.0054 42.6313C42.611 45.601 42.5973 49.2382 41.5681 52.4395Z" fill="#9F9999"/>
<path opacity="0.67" d="M55.1956 100.84C53.7135 101.549 51.4354 101.385 49.816 101.467C46.4675 101.644 43.1739 101.426 39.8253 101.317C38.9608 101.29 38.0276 101.276 37.0669 101.222C35.4613 100.295 33.8694 99.3827 32.4421 98.6607C35.475 96.0861 38.2609 93.1708 40.8958 90.2011C42.6798 88.185 44.4501 86.1007 45.548 83.6351C45.9597 82.6951 46.2616 81.7279 46.4949 80.7471C47.1262 80.8424 47.7575 80.9514 48.3751 81.1013C49.4043 81.3328 50.9139 80.5291 51.7236 81.183C52.5333 81.8369 53.2057 84.3162 53.5488 85.2289C55.0309 89.2748 55.3466 93.4841 55.9229 97.6799C56.1013 99.0558 56.5679 100.186 55.1956 100.84Z" fill="#C94E24"/>
<path d="M53.2058 82.1503C53.2058 82.2729 51.7785 82.8042 51.7785 82.8042C50.5297 83.2537 48.9515 83.063 47.6066 82.8451C45.5069 82.5045 43.7503 82.1503 41.9114 82.2184C39.4137 82.3138 37.314 82.6271 34.9124 82.8859C33.2244 83.063 30.1504 83.0767 28.7643 81.8915C28.4349 81.6054 28.2977 81.1695 28.3114 80.6246C28.3389 78.2951 30.8914 74.113 31.2345 72.6009C32.003 69.1544 31.3855 66.1302 30.617 62.7246C29.972 59.8774 29.7249 56.7306 29.821 53.8154C29.8484 52.7937 29.7112 49.3336 30.7405 48.884L50.5846 49.5379C50.5846 54.7417 51.8334 57.0984 51.1061 62.2478C50.9963 63.0379 50.9002 64.0596 50.8316 65.1902C50.6669 67.833 50.5846 71.0071 50.5571 72.887C50.5022 75.9521 51.9432 79.4939 53.2058 82.1503Z" fill="white"/>
<path d="M57.4872 31.7876C55.8404 33.8991 52.2585 35.8472 46.6457 34.1443C46.3026 34.0354 45.932 33.94 45.5752 33.8583C43.9559 33.4768 42.2404 33.2725 40.8132 33.1363C40.1682 33.0818 39.5644 33.0954 39.0017 33.1499C37.3961 33.3134 36.01 33.8446 34.2946 34.1171C29.8893 34.8255 24.5784 32.9864 25.3606 27.8643C25.786 25.0445 26.9662 24.8265 28.2562 22.715C29.8207 20.1404 27.3505 18.819 26.9114 16.1217C26.335 12.5254 28.9836 10.2231 31.9067 8.61568C34.6102 7.13082 36.8883 7.26705 39.4409 7.52588C40.2368 7.60761 41.0465 7.70297 41.9111 7.77108C44.9302 5.67321 50.7078 8.32961 52.9722 10.9043C56.1423 14.5142 53.2055 17.1843 53.3427 20.6171C53.3564 20.9441 53.3976 21.271 53.4662 21.598C54.3171 25.385 60.7396 27.6191 57.4872 31.7876Z" fill="#19002C"/>
<path d="M55.1265 29.8807C54.8657 31.2429 53.6855 32.2919 52.3681 32.7414C51.0506 33.2046 49.6097 33.1637 48.2236 33.0411C47.2492 32.9594 46.0004 33.0002 45.575 33.8448C43.9556 33.4634 42.2402 33.2591 40.8129 33.1228C40.1679 33.0684 39.5641 33.082 39.0014 33.1365C38.5897 32.8776 38.1506 32.6869 37.684 32.5779C35.6666 32.0603 33.5532 32.8504 31.4673 32.8913C29.8205 32.9185 27.8992 32.2238 27.4875 30.6299C26.9385 28.4776 29.4499 26.802 30.0812 24.6769C30.5615 23.0558 29.8891 21.3393 29.6283 19.6774C29.1755 16.7894 30.0538 13.7243 31.9476 11.4766C34.1159 8.94282 36.8606 8.88833 39.468 7.51245C40.264 7.59418 41.0737 7.68954 41.9383 7.75765C44.9574 5.65978 50.735 8.31618 52.9994 10.8908C56.1695 14.5008 53.2327 17.1708 53.3699 20.6037C53.2327 20.9034 53.0954 21.2031 52.9445 21.4892C52.6151 22.1294 52.2583 22.8106 52.3681 23.5189C52.4504 24.0094 52.7386 24.4317 53.0268 24.8267C54.111 26.3661 55.4833 28.0416 55.1265 29.8807Z" fill="#0D0016"/>
<path d="M46.5496 42.2226C46.2065 42.4133 45.8771 42.6722 45.5478 42.9582C43.6814 44.6202 42.0071 47.5626 39.5506 47.4537C36.4354 47.3174 36.0237 43.762 35.8727 41.4461C35.8727 41.4461 37.5058 39.5935 37.8352 36.0244C37.9175 35.0844 37.9175 34.0218 37.7666 32.8503C40.1682 32.2782 43.2285 33.6132 43.2285 33.6132C43.0364 36.3513 44.2029 40.5879 46.5496 42.2226Z" fill="#FFC3C4"/>
<path opacity="0.54" d="M46.5484 42.2226C46.2053 42.4133 45.876 42.6722 45.5466 42.9582C43.2548 41.7867 41.21 40.1656 39.522 38.2448C38.9731 37.6182 38.3693 36.8553 37.8203 36.0244C37.9027 35.0844 37.9027 34.0218 37.7517 32.8503C40.1533 32.2782 43.2136 33.6132 43.2136 33.6132C43.0352 36.3513 44.2017 40.5879 46.5484 42.2226Z" fill="#FE9D86"/>
<path d="M50.8995 23.0828C50.8446 23.6277 50.7622 24.1726 50.6662 24.7175C50.4191 26.0389 50.0212 27.3194 49.4722 28.491C48.5116 30.548 47.0569 32.2644 45.0533 33.2861C39.6737 36.0379 36.7918 32.8911 35.0214 28.4637C34.4451 27.0334 33.8275 25.6711 33.3197 24.3497C31.9474 20.7534 31.4259 17.4703 35.0626 13.8331C39.2208 9.67823 47.1804 7.73021 49.7879 14.2282C50.7897 16.7211 51.2151 19.9496 50.8995 23.0828Z" fill="#FFC3C4"/>
<path opacity="0.54" d="M50.8998 23.0828C49.3353 21.3664 47.963 19.4728 46.8102 17.4567C46.1378 16.2852 45.534 14.9229 45.5751 13.6151C44.3812 18.5601 41.0327 22.9738 36.5588 25.4531C35.6942 25.9299 34.418 25.3169 33.3338 24.3633C31.9477 20.7534 31.4263 17.4703 35.063 13.8331C39.2212 9.67823 47.1808 7.73021 49.7882 14.2282C50.79 16.7211 51.2155 19.9496 50.8998 23.0828Z" fill="#FE9D86"/>
<path d="M53.2058 82.1502C53.2058 82.2728 51.7785 82.804 51.7785 82.804C50.5297 83.2536 48.9515 83.0629 47.6066 82.8449C45.5069 82.5043 43.7503 82.1502 41.9114 82.2183C39.4137 82.3136 37.314 82.6269 34.9124 82.8858C33.2244 83.0629 30.1504 83.0765 28.7643 81.8913C28.4349 81.6053 28.2977 81.1693 28.3114 80.6244C31.605 81.2374 34.8712 82.191 38.11 81.4963C40.141 81.0604 42.0349 79.9978 44.1071 79.9842C46.1656 79.9705 47.6066 79.9978 47.785 77.6002C47.9222 75.8157 47.634 74.1401 47.0988 72.4509C46.2068 69.5902 46.8106 64.686 50.8179 65.1901C50.6532 67.8329 50.5709 71.0069 50.5434 72.8868C50.5022 75.9519 51.9432 79.4938 53.2058 82.1502Z" fill="#E0D9D9"/>
<path opacity="0.54" d="M47.6477 41.7595C47.4555 43.9664 46.4126 46.1051 44.7932 47.6308C43.1738 49.1566 40.9644 50.0693 38.7412 50.1374C37.7394 50.1646 36.6964 50.0284 35.8867 49.4426C33.3204 47.6172 33.8282 43.6122 37.1767 43.6394C39.0019 43.6531 40.7036 43.8574 42.5288 43.5441C43.2013 43.4351 47.5791 42.5633 47.6477 41.7595Z" fill="#FE9D86"/>
<path opacity="0.42" d="M59.9972 68.1463C59.9835 68.7865 59.9012 69.5085 59.3797 69.89C58.9405 70.2033 58.323 70.1488 57.8015 70.0126C55.4273 69.4268 53.4923 67.7103 51.9279 65.8577C48.4147 61.6892 46.2875 56.4309 45.7798 51.0227C45.6013 49.0474 45.0799 45.1923 46.4385 43.5439C46.6718 43.2715 46.9188 43.0671 47.1933 42.9309C48.6617 45.9551 49.9242 49.0883 50.9535 52.3032C51.8592 55.1231 52.6415 58.0928 54.5216 60.395C56.0312 62.2341 58.172 63.5555 59.86 65.2038C59.9698 66.171 60.011 67.1518 59.9972 68.1463Z" fill="#DDD6D6"/>
<path d="M53.109 22.47C48.7175 21.2032 45.1631 16.5715 44.9161 12.2668C44.7514 19.9771 36.9702 23.5735 30.2869 24.9357C30.1497 24.963 30.0124 24.9902 29.8752 25.0175C30.1085 17.2117 32.3042 8.62954 41.6773 8.16637C47.8803 7.86667 51.668 14.4464 52.7933 20.0861C52.9443 20.9171 53.0541 21.7208 53.109 22.47Z" fill="#190128"/>
<path d="M52.4495 43.5712C49.842 44.8244 47.0424 45.0015 44.7232 47.0177C43.241 48.2982 41.0316 49.6604 40.3317 51.5404C40.6199 50.5187 41.0865 49.5106 41.6079 48.5298C42.0883 47.6307 42.6098 46.7588 43.0901 45.9279C43.9547 44.4566 44.9153 39.8386 46.8503 39.5934C48.0717 39.4435 50.0753 40.8739 51.3653 42.1953C51.8594 42.6993 52.2573 43.1897 52.4495 43.5712Z" fill="#E86538"/>
<path d="M40.3326 51.6219C39.2347 50.355 38.6034 48.4479 37.4507 47.0856C35.5431 44.8515 32.9082 43.2713 29.9988 42.7537C30.8497 41.9636 31.4947 41.119 32.3181 40.4378C32.4553 40.3288 32.5926 40.2199 32.7435 40.1109C34.555 38.844 36.2842 38.8167 37.3272 40.8601C38.1643 42.4812 38.7544 44.2249 39.2484 45.9822C39.4543 46.6906 39.7288 47.6169 39.9483 48.5705C40.2091 49.6467 40.4012 50.7773 40.3326 51.6219Z" fill="#E86538"/>
<path d="M40.3326 51.6221C39.2347 50.3552 38.6034 48.448 37.4507 47.0858C35.5431 44.8517 32.9082 43.2715 29.9988 42.7538C30.8497 41.9637 31.4947 41.1191 32.3181 40.438C33.1964 41.2145 33.9924 42.1544 34.6923 42.9037C36.4489 44.7972 38.2055 46.6771 39.9621 48.5706C40.2091 49.6468 40.4012 50.7775 40.3326 51.6221Z" fill="#D3562B"/>
<path d="M52.4495 43.5712C49.842 44.8245 47.0424 45.0016 44.7232 47.0177C43.241 48.2982 41.0316 49.6605 40.3317 51.5404C40.6199 50.5187 41.0865 49.5106 41.6079 48.5298C43.2959 46.7725 45.2035 45.1787 47.3306 43.9526C48.0854 43.5167 49.6773 42.7675 51.3653 42.1953C51.8594 42.6993 52.2573 43.1898 52.4495 43.5712Z" fill="#D3562B"/>
<path d="M34.0875 24.6359C32.4955 23.3009 30.9036 24.0637 31.5898 26.3796C32.125 28.205 34.2659 28.6545 35.8578 29.1858C35.7754 26.2161 35.4186 25.7666 34.0875 24.6359Z" fill="#FFC3C4"/>
<path d="M50.9968 44.9473H30.1234V75.3664H50.9968V44.9473Z" fill="#2E3E4C"/>
<path opacity="0.56" d="M51.0105 44.9473V75.3664H30.1234V71.1162C33.8562 68.5279 37.3008 65.5582 40.2513 62.1253C44.4781 57.1939 47.662 51.2954 48.9383 44.9609H51.0105V44.9473Z" fill="#2E3E4C"/>
<path opacity="0.56" d="M51.0098 44.9473V75.3664H39.4958C41.7328 72.9007 43.6815 70.2035 45.095 67.2065C46.3027 64.6046 47.0712 61.8392 47.6201 59.033C48.5122 54.4149 48.4024 49.5381 49.4042 44.9609H51.0098V44.9473Z" fill="#212B35"/>
<path d="M53.3837 46.2957C52.972 46.5546 52.4231 46.6091 52.0114 46.8679C51.9153 46.9224 51.8193 47.0041 51.7506 47.0858C51.8879 47.1676 51.9839 47.1403 52.0663 47.1131C52.1623 47.0858 52.2721 47.045 52.4231 47.1676C52.5878 47.2766 52.6976 47.6852 52.7662 47.8623C52.9858 48.4072 53.123 48.9794 53.1916 49.5652C53.3151 50.6277 53.1916 51.9355 52.2996 52.6711C51.3801 53.4203 49.1569 54.0606 48.0316 53.4748C47.6062 53.2569 47.2494 52.8891 47.0023 52.4395C46.4397 51.4723 46.3711 50.1373 46.9063 49.2791C47.6062 48.162 48.3198 47.045 49.4314 46.2821C50.3097 45.6691 51.435 45.6419 52.4643 45.5329C52.725 45.5056 53.5621 45.274 53.768 45.492C53.8092 45.5329 53.8366 45.5737 53.8503 45.6146C53.9464 45.8871 53.5759 46.1731 53.3837 46.2957Z" fill="#FFC3C4"/>
<path opacity="0.54" d="M53.2056 49.5381C53.3291 50.6006 53.2056 51.9084 52.3136 52.644C51.3941 53.3932 49.1709 54.0335 48.0456 53.4477C47.6201 53.2298 47.2633 52.862 47.0163 52.4124C48.3337 52.6031 49.7473 52.2081 50.7354 51.309C51.8744 50.2737 52.4096 48.6117 52.094 47.0996C52.19 47.0724 52.2998 47.0315 52.4508 47.1541C52.6155 47.2631 52.7253 47.6718 52.7939 47.8489C52.9997 48.3938 53.137 48.9659 53.2056 49.5381Z" fill="#FE9D86"/>
<path d="M48.4839 54.4829C46.3705 56.2539 44.1061 58.2836 41.9104 59.9865C36.8876 63.8689 28.7222 72.2876 21.6546 71.1842C21.1056 71.1025 20.6528 70.721 20.4606 70.2306C20.392 70.0671 20.3646 69.8901 20.3509 69.713C20.3509 69.713 19.6921 66.7432 28.2418 61.5258C30.1631 60.3543 34.1292 57.4254 36.4073 55.709C39.5362 53.3659 42.226 52.2897 45.355 50.4234C45.3687 50.4234 45.3824 50.4098 45.3824 50.4098C46.0686 50.0284 46.9469 50.2191 47.3998 50.873C48.5388 52.4804 49.2662 53.8291 48.4839 54.4829Z" fill="#F0ECEC"/>
<path d="M34.3361 57.4935C33.6499 58.7604 33.0049 58.8012 31.6463 58.883C29.1898 59.0192 26.9391 59.0464 26.1295 56.2811C26.0197 55.8996 25.9648 55.4773 25.9648 55.055C25.9785 53.4476 26.7882 51.7175 28.3938 51.2952C30.0544 50.8593 32.4011 51.6766 33.8009 52.7392C33.9107 52.8209 34.0204 52.9027 34.1165 52.998C35.5163 54.2104 35.1732 55.9541 34.3361 57.4935Z" fill="#FFC3C4"/>
<path opacity="0.42" d="M48.4842 54.4829C46.3707 56.2538 44.1064 58.2836 41.9106 59.9864C36.8878 63.8688 28.7224 72.2876 21.6548 71.1841C21.1059 71.1024 20.653 70.721 20.4609 70.2305C21.051 70.1079 21.5999 70.0398 21.9293 69.9581C24.2211 69.4268 26.2247 68.3915 28.1872 67.111C34.9666 62.7245 41.3068 57.33 45.3964 50.3961C46.0826 50.0147 46.9608 50.2054 47.4137 50.8593C48.539 52.4804 49.2664 53.829 48.4842 54.4829Z" fill="#9F9999"/>
<path opacity="0.54" d="M34.3361 57.4936C33.6499 58.7605 33.0049 58.8014 31.6463 58.8831C29.1898 59.0193 26.9391 59.0466 26.1295 56.2812C26.0197 55.8997 25.9648 55.4774 25.9648 55.0551C26.1981 55.5864 26.4314 56.1177 26.8431 56.4991C27.543 57.153 28.586 57.2892 29.5329 57.2348C30.1916 57.1939 30.8641 57.0985 31.4404 56.7852C32.8402 56.036 33.1559 54.5647 33.6362 53.2025C33.6774 53.0799 33.7323 52.9164 33.8009 52.7529C33.9107 52.8347 34.0204 52.9164 34.1165 53.0118C35.5163 54.2105 35.1732 55.9542 34.3361 57.4936Z" fill="#FE9D86"/>
<path d="M58.4895 70.5029C53.6177 71.4974 47.744 67.0564 43.5995 65.122C41.6783 64.2229 39.7158 63.3375 37.8769 62.3021C36.628 61.5938 33.3069 60.2179 32.8129 58.9374C32.3875 57.834 33.1834 54.5509 33.952 53.6791C34.1304 53.4884 34.4048 53.3794 34.7754 53.3521C36.381 53.2159 39.4551 54.4964 40.6215 54.9323C44.1073 56.2537 47.9636 58.1745 51.0514 60.286C51.0514 60.286 57.3642 63.9096 58.6679 65.4626C59.1208 66.1165 59.7795 67.288 59.9442 68.3369C60.0951 69.345 59.8069 70.2441 58.4895 70.5029Z" fill="white"/>
<path d="M30.411 52.2623C33.1694 52.6165 31.8382 49.9874 30.4933 49.4425C30.1914 49.3199 29.8483 49.5106 29.8209 49.8375C29.766 50.3416 29.8346 50.7775 29.9581 51.3224L30.411 52.2623Z" fill="#FE9D86"/>
<path opacity="0.54" d="M53.3831 46.2959C52.9714 46.5547 52.4224 46.6092 52.0107 46.868C52.2303 46.364 52.793 46.1324 53.3008 45.9144C53.4792 45.8327 53.6713 45.7373 53.8497 45.6147C53.9458 45.8872 53.5752 46.1733 53.3831 46.2959Z" fill="#FE9D86"/>
<path d="M58.4895 70.5028C53.6177 71.4973 47.744 67.0563 43.5995 65.1219C41.6783 64.2228 39.7158 63.3374 37.8769 62.3021C36.628 61.5937 33.3069 60.2178 32.8129 58.9373C32.3875 57.8339 33.1834 54.5508 33.952 53.679C34.1304 53.4883 34.4048 53.3793 34.7754 53.3521C34.6107 53.9378 34.3225 54.6598 34.4048 55.2047C34.5558 56.1992 35.0498 57.18 35.736 57.9292C37.1083 59.455 39.0845 60.2723 40.9235 61.185C44.5876 62.9832 47.991 65.2854 51.6826 67.0563C53.6725 68.0099 55.8134 68.8273 58.0092 68.7183C58.6679 68.691 59.3266 68.5548 59.9579 68.3369C60.0951 69.3449 59.8069 70.244 58.4895 70.5028Z" fill="#E0D9D9"/>
<path d="M53.1082 22.4697C48.7167 21.2028 45.1623 16.5712 44.9153 12.2664C44.7506 19.9768 36.9695 23.5732 30.2861 24.9354C30.3273 24.8537 30.3685 24.7719 30.4234 24.6902C30.9586 23.9001 31.7408 23.9818 32.5505 23.614C35.0482 22.497 37.5596 20.2765 39.5083 18.4102C41.8275 16.1761 43.7763 13.4788 44.682 10.4001C46.5759 14.2008 49.3754 17.552 52.7789 20.0994C52.9435 20.9168 53.0533 21.7205 53.1082 22.4697Z" fill="#0D0016"/>
</g>
</svg>
