<svg xmlns:dc="http://purl.org/dc/elements/1.1/" xmlns:cc="http://creativecommons.org/ns#" xmlns:rdf="http://www.w3.org/1999/02/22-rdf-syntax-ns#" xmlns:svg="http://www.w3.org/2000/svg" xmlns="http://www.w3.org/2000/svg" height="72.2" width="72.2" xml:space="preserve" enable-background="new 0 0 200 200" viewBox="0 0 72.2 72.2" y="0" x="0" id="Layer_1" version="1.1">
<style>
.s0{
	fill:#ee6232;
}

</style>  <metadata id="metadata3594">
    <rdf:RDF>
      <cc:Work rdf:about="">
        <dc:format>
          image/svg+xml
        </dc:format>
        <dc:type rdf:resource="http://purl.org/dc/dcmitype/StillImage"/>
      </cc:Work>
    </rdf:RDF>
  </metadata>
  <defs id="defs3592"/>
  <g transform="translate(-63,-64.7)" id="g3570">
    <path id="path3572" d="m99.1 117.8-0.5-0.2C91.6 114 87.3 107 87.3 99.2c0-7.8 4.3-14.8 11.3-18.4l0.5-0.2 0.5 0.2c7 3.6 11.3 10.6 11.3 18.4 0 7.8-4.3 14.8-11.3 18.4l-0.5 0.2zm0-35c-6 3.3-9.7 9.5-9.7 16.4 0 6.9 3.7 13.1 9.7 16.4 6-3.3 9.7-9.5 9.7-16.4 0-6.9-3.7-13.1-9.7-16.4z" fill="#ee6232"/>
  </g>
  <g transform="translate(-63,-64.7)" id="g3574">
    <rect id="rect3576" height="30.2" width="2" y="93" x="98.1" fill="#ee6232"/>
  </g>
  <g transform="translate(-63,-64.7)" id="g3578">
    <rect id="rect3580" height="7" width="2" transform="matrix(0.7071,0.7071,-0.7071,0.7071,100.069,-42.5045)" y="96.1" x="100.3" fill="#ee6232"/>
  </g>
  <g transform="translate(-63,-64.7)" id="g3582">
    <rect id="rect3584" height="2" width="6.6" transform="matrix(0.7071,0.7071,-0.7071,0.7071,102.3481,-37.7566)" y="103.7" x="93.5" fill="#ee6232"/>
  </g>
  <g transform="translate(-63,-64.7)" id="g3586">
    <path id="path3588" d="M99.1 136.9C79.2 136.9 63 120.7 63 100.8 63 80.9 79.2 64.7 99.1 64.7c19.9 0 36.1 16.2 36.1 36.1 0 19.9-16.2 36.1-36.1 36.1zm0-70.1C80.3 66.8 65 82 65 100.8c0 18.8 15.3 34.1 34.1 34.1 18.8 0 34.1-15.3 34.1-34.1 0-18.8-15.3-34-34.1-34z" fill="#ee6232"/>
  </g>
</svg>