<svg xmlns:svg="http://www.w3.org/2000/svg" xmlns="http://www.w3.org/2000/svg" height="72.2" width="72.2" xml:space="preserve" enable-background="new 0 0 200 200" viewBox="0 0 72.2 72.2" y="0" x="0" id="Layer_1" version="1.1">
  <metadata id="metadata3691"/>
  <defs id="defs3689"/>
  <g transform="translate(-63,-63.9)" id="g3677">
    <path id="path3679" d="M99.1 136.1C79.2 136.1 63 119.9 63 100 63 80.1 79.2 63.9 99.1 63.9c19.9 0 36.1 16.2 36.1 36.1 0 19.9-16.2 36.1-36.1 36.1zm0-70.2C80.3 65.9 65 81.2 65 100c0 18.8 15.3 34.1 34.1 34.1 18.8 0 34.1-15.3 34.1-34.1 0-18.8-15.3-34.1-34.1-34.1z" fill="#ee6232"/>
  </g>
  <g transform="translate(-63,-63.9)" id="g3681">
    <path id="path3683" d="m103.3 111.6c0.4 0.7 1.4 3.4 1.9 4.6 0.2-0.1 0.4-0.2 0.6-0.2 0.4-0.2 0.8-0.4 1.2-0.5-0.4-1.2-1.6-4.9-2.7-5.9 0 0-0.1 0-0.1 0-0.2 0-0.6 0.1-1.1 0.1-0.7 0-1.5-0.1-2.2-0.7 1.4-0.9 2-2 2.5-3l0-0.1c0.7-1.3 1.4-2.3 3.1-2.3 0-0.5 0-1-0.1-1.4 0-0.2 0-0.4 0-0.6-3 0.1-4.2 2.3-4.8 3.4l0 0.1c-0.7 1.3-2.3 3.1-5.2 3.2-0.7 0-1.6-0.1-2.5-0.5 0 0 0 0 0 0-0.5-0.2-0.9-0.5-1.4-0.8-0.7-0.6-1.5-1.5-2.1-3 0 0 0 0 0 0-0.6 0.2-1.3 0.4-1.9 0.7 0 0 0 0 0 0.1 0.4 1.1 0.9 1.9 1.4 2.6-0.4 0.1-0.9 0.1-1.3 0.1-1.8 0-4-0.6-5.5-3.1-0.7-1.2-0.7-2.3-0.5-3.2 0 0 0 0 0 0 0 0 0.2-0.9 1.3-1.5 1-0.6 2.6-0.7 4.5-0.3 0.2-0.7 0.4-1.3 0.7-1.9-2.6-0.6-4.7-0.5-6.3 0.5-0.4-1.6-0.3-4.1 3.2-5.4 0.2-0.1 0.5-3.9 5.1-3.9 0.3 0 0.6 0.1 0.9 0.1 0 0 0 0 0 0 0.1 0 1.9-2.6 4.9-2.6 0.8 0 1.7 0.2 2.6 0.6-0.9 0.7-1.5 1.6-2 2.8 0 0 0 0 0 0 0 0 0 0 0 0 0 0 0 0 0 0-0.2 0.4-0.3 0.7-0.4 1.1-0.5 1.6-0.8 2.1-2 2.2 0 0.7 0.1 1.4 0 2 1.6 0 2.5-0.7 3.1-1.5 0.4 0.5 1.1 1 2.2 1.1 0.1-0.7 0.2-1.3 0.4-2-0.5-0.1-0.9-0.3-1.1-0.6-0.3-0.5-0.3-1.2-0.2-1.6 0.9-2.8 4.8-3 5-3 1.7 0 3.7 0.6 4.9 3.3 0.1 0.1 7.6 1.9 4.7 8.7 0-0.1-0.1-0.1-0.1-0.2-1-1.3-2.9-3-6.5-3.3 0 0.7-0.1 1.4-0.2 2 5.2 0.4 5.9 4.4 6 4.6 0 0.1 0 0.1 0 0.2 0.1 2.2-0.3 5.8-5 6.3-0.2 0 2.2 4.9 2.2 5.2 0.4-0.1 0.7-0.3 1.1-0.4 0.2-0.1 0.5-0.2 0.7-0.3-0.3-1-0.9-2.3-1.3-3 2.2-0.9 3.2-2.5 3.7-3.9 0.7-1.9 0.5-3.9 0.4-5 1.5-2.7 1.9-5.2 1.1-7.5-0.8-2.2-2.7-3.9-5.6-5-1.4-2.4-3.6-3.7-6.4-3.7-1.1 0-2.1 0.2-2.7 0.4-1.6-1-3.2-1.5-4.8-1.5-2.8 0-4.7 1.5-5.7 2.5 0 0-0.1 0-0.1 0-2.8 0-4.5 1.2-5.4 2.2-0.7 0.8-1.1 1.7-1.4 2.3-2.7 1.3-3.5 3.3-3.7 4.8-0.2 1.4 0.1 2.7 0.4 3.6-0.1 0.3-0.3 0.7-0.4 1.1 0 0.1-0.1 0.2-0.1 0.3 0 0 0 0 0 0-0.3 1.4-0.3 3.1 0.7 4.7 1.6 2.6 4.1 4 7.3 4 1.3 0 2.4-0.2 3.2-0.4 0.6 0.4 1.1 0.6 1.3 0.7 1.1 0.5 2.2 0.7 3.4 0.7 1 0 1.9-0.2 2.6-0.4 0.9 1.1 2.3 1.8 4.1 1.8 0.3-0.5 0.4-0.5 0.4-0.5zM99.8 99.4 99.8 99.4 99.8 99.4 99.8 99.4 99.8 99.4 99.8 99.4 99.8 99.4 99.8 99.4c0.1-0.7 0.2-1.4 0.3-2-1.3-0.1-2.5 0.4-3.3 1.3-0.8 0.9-1.1 2.2-0.8 3.5 0 0 0 0.1 0 0.1 0.6-0.2 1.3-0.4 1.9-0.6-0.2-0.7-0.1-1.2 0.3-1.7 0.5-0.4 1-0.6 1.6-0.6z" fill="#ee6232"/>
  </g>
</svg>