<svg xmlns:svg="http://www.w3.org/2000/svg" xmlns="http://www.w3.org/2000/svg" height="72.2" width="72.2" xml:space="preserve" enable-background="new 0 0 200 200" viewBox="0 0 72.2 72.2" y="0" x="0" id="Layer_1" version="1.1">
  <metadata id="metadata3997"/>
  <defs id="defs3995"/>
  <g transform="translate(-63.3,-64.4)" id="g3941">
    <g id="g3943">
      <path id="path3945" d="m90.4 93.1c0-0.2 0.1-0.4 0.2-0.5 0.1-0.2 0.2-0.3 0.3-0.4l0-1.2c0-3.3-2.7-6-6-6-1.5 0-2.8 0.5-3.8 1.4 0.5 0.4 0.9 1 1.3 1.6 0.7-0.6 1.6-1 2.6-1 2.2 0 4 1.8 4 4l0 3.2c0.4-0.4 0.9-0.8 1.4-1.1z" fill="#ee6232"/>
    </g>
  </g>
  <g transform="translate(-63.3,-64.4)" id="g3947">
    <path id="path3949" d="m111.9 104.9c-0.2 6.7-5.7 12.1-12.4 12.1-6.8 0-12.4-5.6-12.4-12.4 0-1.4 0.2-2.7 0.7-3.9C88 100.1 89 98.3 89.3 97.9 90.3 96 90.9 94 91 92l-2-0.1c-0.1 1.7-0.6 3.4-1.5 4.9-0.2 0.3-1.2 2-1.3 2.3-0.7 1.7-1.1 3.5-1.1 5.4 0 7.9 6.5 14.4 14.4 14.4 7.9 0 14.2-6.3 14.4-14.1-0.7 0-1.3 0.1-2 0.1z" fill="#ee6232"/>
  </g>
  <g transform="translate(-63.3,-64.4)" id="g3951">
    <g id="g3953">
      <g id="g3955">
        <path id="path3957" d="m108.6 93.1c0-0.2-0.1-0.4-0.2-0.5-0.1-0.2-0.2-0.3-0.3-0.4l0-1.2c0-3.3 2.7-6 6-6 1.5 0 2.8 0.5 3.8 1.4-0.5 0.4-0.9 1-1.3 1.6-0.7-0.6-1.6-1-2.6-1-2.2 0-4 1.8-4 4l0 3.2c-0.4-0.4-0.9-0.8-1.4-1.1z" fill="#ee6232"/>
      </g>
    </g>
  </g>
  <g transform="translate(-63.3,-64.4)" id="g3959">
    <g id="g3961">
      <path id="path3963" d="m87.1 104.9c0.2 6.7 5.7 12.1 12.4 12.1 6.8 0 12.4-5.6 12.4-12.4 0-1.4-0.2-2.7-0.7-3.9-0.2-0.6-1.2-2.4-1.5-2.8-1.1-1.8-1.7-3.8-1.7-5.8l2-0.1c0.1 1.7 0.6 3.4 1.5 4.9 0.2 0.3 1.2 2 1.3 2.3 0.7 1.7 1.1 3.5 1.1 5.4 0 7.9-6.5 14.4-14.4 14.4-7.9 0-14.2-6.3-14.4-14.1 0.7-0.1 1.3 0 2 0z" fill="#ee6232"/>
    </g>
  </g>
  <g transform="translate(-63.3,-64.4)" id="g3965">
    <rect id="rect3967" height="22.2" width="2" y="90.2" x="93.9" fill="#ee6232"/>
  </g>
  <g transform="translate(-63.3,-64.4)" id="g3969">
    <rect id="rect3971" height="22.2" width="2" y="90.2" x="103.1" fill="#ee6232"/>
  </g>
  <g transform="translate(-63.3,-64.4)" id="g3973">
    <rect id="rect3975" height="22.2" width="2" y="90.2" x="98.5" fill="#ee6232"/>
  </g>
  <g transform="translate(-63.3,-64.4)" id="g3977">
    <rect id="rect3979" height="2" width="14.8" y="97.4" x="92.3" fill="#ee6232"/>
  </g>
  <g transform="translate(-63.3,-64.4)" id="g3981">
    <path id="path3983" d="m99.4 136.6c-19.9 0-36.1-16.2-36.1-36.1 0-19.9 16.2-36.1 36.1-36.1 19.9 0 36.1 16.2 36.1 36.1 0 19.9-16.2 36.1-36.1 36.1zm0-70.2c-18.8 0-34.1 15.3-34.1 34.1 0 18.8 15.3 34.1 34.1 34.1 18.8 0 34.1-15.3 34.1-34.1 0-18.8-15.3-34.1-34.1-34.1z" fill="#ee6232"/>
  </g>
  <path id="path3985" d="m50.8 20.6 0 2c2 0 3.7 1.6 3.7 3.7 0 0.9-0.4 1.7-1.1 2.2 0 0 0 0 0 0.1l0 0c-0.4 0.3-1 0.5-1.5 0.5-1.1 0-2-0.9-2-2 0-0.6 0.4-1.1 0.9-1.3l0-2c-1.6 0.2-2.9 1.6-2.9 3.3 0 2.2 1.8 4 4 4 2.6 0 4.7-2.1 4.7-4.7-0.1-3.2-2.7-5.8-5.8-5.8z" fill="#ee6232"/>
  <g transform="translate(-63.3,-64.4)" id="g3987">
    <path id="path3989" d="m81.6 91 0 0c0-0.1 0-0.2 0-0.3 0.1 0.1 0 0.2 0 0.3zM85.1 88.1l0 2.1c0.5 0.2 0.8 0.7 0.8 1.3 0 1.1-0.9 2-2 2-0.5 0-1-0.1-1.4-0.4l-0.1 0c0 0 0-0.1-0.1-0.1-0.7-0.5-1.2-1.3-1.2-2.2 0-2 1.6-3.7 3.7-3.7l0-2c-3.1 0-5.7 2.5-5.7 5.7 0 2.6 2.1 4.7 4.7 4.7 2.2 0 4-1.8 4-4 0.1-1.7-1.1-3.1-2.7-3.4z" fill="#ee6232"/>
  </g>
</svg>