<svg xmlns:svg="http://www.w3.org/2000/svg" xmlns="http://www.w3.org/2000/svg" height="72.2" width="72.2" xml:space="preserve" enable-background="new 0 0 200 200" viewBox="0 0 72.2 72.2" y="0" x="0" id="Layer_1" version="1.1">
  <metadata id="metadata4132"/>
  <defs id="defs4130"/>
  <g transform="translate(-63,-63.9)" id="g4112">
    <path id="path4114" d="m91.3 97.2c-3.2 0-5.8-2.6-5.8-5.8 0-3.2 2.6-5.8 5.8-5.8 3.2 0 5.8 2.6 5.8 5.8 0 3.2-2.6 5.8-5.8 5.8zm0-9.4c-2.1 0-3.8 1.7-3.8 3.8 0 2.1 1.7 3.8 3.8 3.8 2.1 0 3.8-1.7 3.8-3.8 0-2.1-1.7-3.8-3.8-3.8z" fill="#ee6232"/>
  </g>
  <g transform="translate(-63,-63.9)" id="g4116">
    <path id="path4118" d="m106.3 112.8c-3.2 0-5.8-2.6-5.8-5.8 0-3.2 2.6-5.8 5.8-5.8 3.2 0 5.8 2.6 5.8 5.8 0 3.2-2.6 5.8-5.8 5.8zm0-9.5c-2.1 0-3.8 1.7-3.8 3.8 0 2.1 1.7 3.8 3.8 3.8 2.1 0 3.8-1.7 3.8-3.8 0-2.1-1.7-3.8-3.8-3.8z" fill="#ee6232"/>
  </g>
  <g transform="translate(-63,-63.9)" id="g4120">
    <rect id="rect4122" height="33.3" width="2" transform="matrix(0.699,0.7151,-0.7151,0.699,100.8713,-40.7411)" y="82.8" x="97.8" fill="#ee6232"/>
  </g>
  <g transform="translate(-63,-63.9)" id="g4124">
    <path id="path4126" d="M99.1 136.1C79.2 136.1 63 119.9 63 100 63 80.1 79.2 63.9 99.1 63.9c19.9 0 36.1 16.2 36.1 36.1 0 19.9-16.2 36.1-36.1 36.1zm0-70.2C80.3 65.9 65 81.2 65 100c0 18.8 15.3 34.1 34.1 34.1 18.8 0 34.1-15.3 34.1-34.1 0-18.8-15.3-34.1-34.1-34.1z" fill="#ee6232"/>
  </g>
</svg>