<svg width="16" height="16" viewBox="0 0 16 16" fill="none" xmlns="http://www.w3.org/2000/svg">
<path fill-rule="evenodd" clip-rule="evenodd" d="M1.60669 0.275664C1.23913 -0.0918878 0.643216 -0.091888 0.275664 0.275664C-0.0918878 0.643215 -0.091888 1.23913 0.275664 1.60669L6.66897 7.99999L0.41757 14.2514C0.0500184 14.6189 0.0500186 15.2149 0.41757 15.5824C0.785122 15.95 1.38104 15.95 1.74859 15.5824L7.99999 9.33101L14.2514 15.5824C14.6189 15.95 15.2149 15.95 15.5824 15.5824C15.95 15.2149 15.95 14.6189 15.5824 14.2514L9.33101 7.99999L15.7243 1.60669C16.0919 1.23913 16.0919 0.643215 15.7243 0.275664C15.3568 -0.091888 14.7609 -0.0918878 14.3933 0.275664L7.99999 6.66897L1.60669 0.275664Z" fill="#B5C7CD"/>
</svg>
