<svg xmlns="http://www.w3.org/2000/svg" width="18" height="18" viewBox="0 0 18 18">
    <g fill="#FFF" fill-rule="evenodd">
        <path d="M8.997 0c-2.443 0-2.75.01-3.71.054C4.33.098 3.677.25 3.105.472A4.41 4.41 0 0 0 1.51 1.51 4.41 4.41 0 0 0 .472 3.104C.25 3.676.098 4.33.054 5.288.01 6.248 0 6.554 0 8.998c0 2.443.01 2.749.054 3.709.044.957.196 1.611.418 2.184a4.41 4.41 0 0 0 1.038 1.593c.5.5 1.002.808 1.594 1.038.572.222 1.226.375 2.184.418.96.044 1.266.054 3.71.054 2.443 0 2.749-.01 3.709-.054.957-.043 1.611-.196 2.184-.418a4.41 4.41 0 0 0 1.593-1.038c.5-.5.808-1.002 1.038-1.593.222-.573.375-1.227.418-2.184.044-.96.054-1.266.054-3.71 0-2.443-.01-2.75-.054-3.71-.043-.957-.196-1.611-.418-2.183a4.41 4.41 0 0 0-1.038-1.594A4.41 4.41 0 0 0 14.891.472C14.318.25 13.664.098 12.707.054 11.747.01 11.44 0 8.997 0m0 1.621c2.403 0 2.687.01 3.636.053.877.04 1.353.186 1.67.31.42.163.72.358 1.035.672.315.315.51.615.673 1.035.123.317.27.793.31 1.67.043.95.052 1.234.052 3.636 0 2.403-.009 2.687-.052 3.636-.04.877-.187 1.353-.31 1.67-.163.42-.358.72-.673 1.035-.315.315-.615.51-1.035.673-.317.123-.793.27-1.67.31-.949.043-1.233.052-3.636.052-2.402 0-2.687-.009-3.635-.052-.878-.04-1.354-.187-1.671-.31a2.788 2.788 0 0 1-1.035-.673 2.788 2.788 0 0 1-.673-1.035c-.123-.317-.27-.793-.31-1.67-.043-.949-.052-1.233-.052-3.636 0-2.402.01-2.687.053-3.635.04-.878.186-1.354.31-1.671.163-.42.358-.72.672-1.035.315-.314.615-.51 1.035-.673.317-.123.793-.27 1.67-.31.95-.043 1.234-.052 3.636-.052"/>
        <path d="M8.997 11.996a3 3 0 1 1 0-5.998 3 3 0 0 1 0 5.998m0-7.619a4.62 4.62 0 1 0 0 9.24 4.62 4.62 0 0 0 0-9.24M14.88 4.194a1.08 1.08 0 1 1-2.16 0 1.08 1.08 0 0 1 2.16 0"/>
    </g>
</svg>
