<svg xmlns:svg="http://www.w3.org/2000/svg" xmlns="http://www.w3.org/2000/svg" height="72.2" width="72.2" xml:space="preserve" enable-background="new 0 0 200 200" viewBox="0 0 72.2 72.2" y="0" x="0" id="Layer_1" version="1.1">
  <metadata id="metadata4289"/>
  <defs id="defs4287"/>
  <g transform="translate(-62.9,-64.4)" id="g4247">
    <rect id="rect4249" height="19.2" width="2" y="96.4" x="87.4" fill="#ee6232"/>
  </g>
  <g transform="translate(-62.9,-64.4)" id="g4251">
    <rect id="rect4253" height="19.7" width="2" y="95.8" x="108.5" fill="#ee6232"/>
  </g>
  <g transform="translate(-62.9,-64.4)" id="g4255">
    <g id="g4257">
      <path id="path4259" d="m82.9 93.9c-0.3-0.6-0.5-1.2-0.5-1.9 0-2.2 1.8-4 4-4l25.2 0c2.2 0 4 1.8 4 4 0 1-0.4 1.9-1 2.6 0.6 0.3 1.1 0.8 1.6 1.3 0.9-1 1.4-2.4 1.4-3.8 0-3.3-2.7-6-6-6l-25.2 0c-3.3 0-6 2.7-6 6 0 1.4 0.5 2.7 1.3 3.7 0.3-0.8 0.7-1.4 1.2-1.9z" fill="#ee6232"/>
    </g>
  </g>
  <g transform="translate(-62.9,-64.4)" id="g4261">
    <rect id="rect4263" height="2" width="14" y="93.4" x="92" fill="#ee6232"/>
  </g>
  <g transform="translate(-62.9,-64.4)" id="g4265">
    <rect id="rect4267" height="21.2" width="2" y="94.4" x="93.4" fill="#ee6232"/>
  </g>
  <g transform="translate(-62.9,-64.4)" id="g4269">
    <rect id="rect4271" height="21.2" width="2" y="94.4" x="102.6" fill="#ee6232"/>
  </g>
  <g transform="translate(-62.9,-64.4)" id="g4273">
    <rect id="rect4275" height="21.2" width="2" y="94.4" x="98.1" fill="#ee6232"/>
  </g>
  <g transform="translate(-62.9,-64.4)" id="g4277">
    <path id="path4279" d="m99 136.6c-19.9 0-36.1-16.2-36.1-36.1 0-19.9 16.2-36.1 36.1-36.1 19.9 0 36.1 16.2 36.1 36.1 0 19.9-16.2 36.1-36.1 36.1zm0-70.2c-18.8 0-34 15.3-34 34.1 0 18.8 15.3 34.1 34.1 34.1 18.8 0 34.1-15.3 34.1-34.1 0-18.8-15.4-34.1-34.2-34.1z" fill="#ee6232"/>
  </g>
  <path id="path4281" d="m23.9 24.6c-1.7 0-3.1 1.3-3.3 3l2 0c0.2-0.6 0.7-1 1.3-1 1.1 0 2 0.9 2 2 0 1.5-1.2 2.7-2.7 2.7-2 0-3.7-1.6-3.7-3.7l-2 0c0 3.1 2.5 5.7 5.7 5.7 2.6 0 4.7-2.1 4.7-4.7 0-2.2-1.8-4-4-4zM52.7 27.7c0 2-1.6 3.7-3.7 3.7-1.5 0-2.7-1.2-2.7-2.7 0-1.1 0.9-2 2-2 0.6 0 1.1 0.4 1.3 1l2 0c-0.2-1.7-1.6-3-3.3-3-2.2 0-4 1.8-4 4 0 2.6 2.1 4.7 4.7 4.7 3.1 0 5.7-2.5 5.7-5.7l-2 0z" fill="#ee6232"/>
</svg>