<svg xmlns:svg="http://www.w3.org/2000/svg" xmlns="http://www.w3.org/2000/svg" height="72.2" width="72.2" xml:space="preserve" enable-background="new 0 0 200 200" viewBox="0 0 72.2 72.2" y="0" x="0" id="Layer_1" version="1.1">
  <metadata id="metadata4730"/>
  <defs id="defs4728"/>
  <g transform="translate(-62.2,-64.4)" id="g4686">
    <path id="path4688" d="m113.8 116.5-30.9 0c-0.6 0-1-0.4-1-1l0-30.9c0-0.6 0.4-1 1-1l30.9 0c0.6 0 1 0.4 1 1l0 30.9c0 0.6-0.5 1-1 1zm-29.9-2 28.9 0 0-28.9-28.9 0 0 28.9z" fill="#ee6232"/>
  </g>
  <g transform="translate(-62.2,-64.4)" id="g4690">
    <rect id="rect4692" height="2" width="8.1" y="92.5" x="100.3" fill="#ee6232"/>
  </g>
  <g transform="translate(-62.2,-64.4)" id="g4694">
    <rect id="rect4696" height="2" width="8.1" y="105.5" x="100.3" fill="#ee6232"/>
  </g>
  <g transform="translate(-62.2,-64.4)" id="g4698">
    <path id="path4700" d="m104.4 104.9c-0.7 0-1.3-0.6-1.3-1.3 0-0.7 0.6-1.3 1.3-1.3 0.7 0 1.3 0.6 1.3 1.3 0 0.7-0.6 1.3-1.3 1.3zm0-2c-0.4 0-0.7 0.3-0.7 0.7 0 0.4 0.3 0.7 0.7 0.7 0.4 0 0.7-0.3 0.7-0.7 0-0.4-0.3-0.7-0.7-0.7z" fill="#ee6232"/>
  </g>
  <g transform="translate(-62.2,-64.4)" id="g4702">
    <rect id="rect4704" height="2" width="8.9" y="92.5" x="87.3" fill="#ee6232"/>
  </g>
  <g transform="translate(-62.2,-64.4)" id="g4706">
    <rect id="rect4708" height="8.9" width="2" y="89" x="90.8" fill="#ee6232"/>
  </g>
  <g transform="translate(-62.2,-64.4)" id="g4710">
    <rect id="rect4712" height="2" width="8.9" transform="matrix(0.7072,0.7071,-0.7071,0.7072,102.169,-33.6847)" y="105.5" x="87.3" fill="#ee6232"/>
  </g>
  <g transform="translate(-62.2,-64.4)" id="g4714">
    <rect id="rect4716" height="8.9" width="2" transform="matrix(0.7071,0.7071,-0.7071,0.7071,102.1798,-33.6839)" y="102" x="90.8" fill="#ee6232"/>
  </g>
  <g transform="translate(-62.2,-64.4)" id="g4718">
    <path id="path4720" d="m98.3 136.6c-19.9 0-36.1-16.2-36.1-36.1 0-19.9 16.2-36.1 36.1-36.1 19.9 0 36.1 16.2 36.1 36.1 0 19.9-16.2 36.1-36.1 36.1zm0-70.2c-18.8 0-34.1 15.3-34.1 34.1 0 18.8 15.3 34.1 34.1 34.1 18.8 0 34.1-15.3 34.1-34.1 0-18.8-15.3-34.1-34.1-34.1z" fill="#ee6232"/>
  </g>
  <circle id="circle4722" r="1.3" cy="39.2" cx="42.2" fill="#ee6232"/>
  <circle id="circle4724" r="1.3" cy="45" cx="42.2" fill="#ee6232"/>
</svg>