<svg xmlns="http://www.w3.org/2000/svg" width="12" height="20" viewBox="0 0 12 20">
    <g fill="#FFF" fill-rule="evenodd">
        <path d="M5.771 3.014c1.174 0 2.13.955 2.13 2.13A2.132 2.132 0 0 1 5.77 7.27a2.132 2.132 0 0 1-2.129-2.128c0-1.174.956-2.13 2.13-2.13m0 7.271a5.147 5.147 0 0 0 5.142-5.14A5.148 5.148 0 0 0 5.77 0 5.148 5.148 0 0 0 .628 5.143a5.147 5.147 0 0 0 5.143 5.141M7.852 14.479a9.619 9.619 0 0 0 2.986-1.237 1.506 1.506 0 0 0-1.605-2.551 6.53 6.53 0 0 1-6.924 0 1.506 1.506 0 1 0-1.605 2.55c.93.584 1.94 1 2.986 1.238L.815 17.354a1.506 1.506 0 0 0 2.131 2.13l2.825-2.825 2.826 2.825a1.505 1.505 0 0 0 2.13 0c.589-.588.589-1.543 0-2.13l-2.875-2.875z"/>
    </g>
</svg>
