<svg xmlns:svg="http://www.w3.org/2000/svg" xmlns="http://www.w3.org/2000/svg" height="72.2" width="72.2" xml:space="preserve" enable-background="new 0 0 200 200" viewBox="0 0 72.2 72.2" y="0" x="0" id="Layer_1" version="1.1">
  <metadata id="metadata4592"/>
  <defs id="defs4590"/>
  <g transform="translate(-63,-64.4)" id="g4560">
    <path id="path4562" d="m93.4 103.5-12.8 0c-0.3 0-0.7-0.2-0.9-0.5-0.2-0.3-0.2-0.7 0-1l6.4-12.5c0.3-0.7 1.4-0.7 1.8 0l6.4 12.5c0.2 0.3 0.1 0.7 0 1-0.2 0.3-0.6 0.5-0.9 0.5zm-11.1-2 9.5 0-4.8-9.3-4.7 9.3z" fill="#ee6232"/>
  </g>
  <g transform="translate(-63,-64.4)" id="g4564">
    <path id="path4566" d="m87 110.1c-4.1 0-7.4-3.3-7.4-7.4 0-0.1 0-0.1 0-0.2 0-0.5 0.5-1 1-1l12.7 0c0.5 0 1 0.4 1 1 0 0.1 0 0.2 0 0.3 0.1 4-3.2 7.3-7.3 7.3zm-5.3-6.6c0.4 2.6 2.6 4.6 5.3 4.6 2.7 0 5-2 5.3-4.6l-10.6 0z" fill="#ee6232"/>
  </g>
  <g transform="translate(-63,-64.4)" id="g4568">
    <path id="path4570" d="m117.2 103.5-12.8 0c-0.3 0-0.7-0.2-0.9-0.5-0.2-0.3-0.2-0.7 0-1l6.4-12.5c0.3-0.7 1.4-0.7 1.8 0L118 102c0.2 0.3 0.1 0.7 0 1-0.2 0.3-0.5 0.5-0.8 0.5zm-11.2-2 9.5 0-4.7-9.3-4.8 9.3z" fill="#ee6232"/>
  </g>
  <g transform="translate(-63,-64.4)" id="g4572">
    <path id="path4574" d="m110.8 110.1c-4.1 0-7.4-3.3-7.4-7.4 0-0.1 0-0.1 0-0.2 0-0.5 0.5-1 1-1l12.7 0c0.5 0 1 0.4 1 1 0 0.1 0 0.2 0 0.3 0 4-3.3 7.3-7.3 7.3zm-5.4-6.6c0.4 2.6 2.6 4.6 5.3 4.6 2.7 0 5-2 5.3-4.6l-10.6 0z" fill="#ee6232"/>
  </g>
  <g transform="translate(-63,-64.4)" id="g4576">
    <rect id="rect4578" height="2" width="23.9" y="89" x="86.8" fill="#ee6232"/>
  </g>
  <g transform="translate(-63,-64.4)" id="g4580">
    <rect id="rect4582" height="34.8" width="2" y="83.1" x="97.9" fill="#ee6232"/>
  </g>
  <g transform="translate(-63,-64.4)" id="g4584">
    <path id="path4586" d="M99.1 136.6C79.2 136.6 63 120.4 63 100.5 63 80.6 79.2 64.4 99.1 64.4c19.9 0 36.1 16.2 36.1 36.1 0 19.9-16.2 36.1-36.1 36.1zm0-70.2C80.3 66.4 65 81.7 65 100.5c0 18.8 15.3 34.1 34.1 34.1 18.8 0 34.1-15.3 34.1-34.1 0-18.8-15.3-34.1-34.1-34.1z" fill="#ee6232"/>
  </g>
</svg>