<svg xmlns:svg="http://www.w3.org/2000/svg" xmlns="http://www.w3.org/2000/svg" height="72.2" width="72.2" xml:space="preserve" enable-background="new 0 0 200 200" viewBox="0 0 72.2 72.2" y="0" x="0" id="Layer_1" version="1.1">
  <metadata id="metadata4890"/>
  <defs id="defs4888"/>
  <g transform="translate(-63,-63.9)" id="g4876">
    <path id="path4878" d="m107.1 119.1-19.5 0 0-14c-3-3-4.7-7-4.7-11.2 0-8.7 7.1-15.8 15.8-15.8 8.7 0 15.8 7.1 15.8 15.8l0 1.7 3.1 6c0.5 1 0.6 2.1 0.1 2.9-0.5 0.8-1.5 1.3-2.6 1.3l-0.6 0 0 4.5c0 2.3-1.8 4.1-4.1 4.1l-3.3 0 0 4.7zm-17.5-2 15.5 0 0-4.7 5.3 0c1.2 0 2.1-1 2.1-2.1l0-6.5 2.6 0c0.5 0 0.8-0.1 0.9-0.3 0.1-0.2 0.1-0.6-0.1-1l-3.3-6.4 0-2.2c0-7.6-6.2-13.8-13.8-13.8-7.6 0-13.8 6.2-13.8 13.8 0 3.9 1.5 7.4 4.4 10.1l0.3 0.3 0 12.8z" fill="#ee6232"/>
  </g>
  <path id="path4880" d="m43.4 30.6c1 0 1.7 0.8 1.7 1.7 0 0.9-0.8 1.7-1.7 1.7-0.9 0-1.7-0.8-1.7-1.7 0-0.9 0.7-1.7 1.7-1.7m0-2c-2.1 0-3.7 1.7-3.7 3.7 0 2 1.7 3.7 3.7 3.7 2.1 0 3.7-1.7 3.7-3.7 0-2-1.7-3.7-3.7-3.7l0 0z" fill="#ee6232"/>
  <g transform="translate(-63,-63.9)" id="g4882">
    <path id="path4884" d="M99.1 136.1C79.2 136.1 63 119.9 63 100 63 80.1 79.2 63.9 99.1 63.9c19.9 0 36.1 16.2 36.1 36.1 0 19.9-16.2 36.1-36.1 36.1zm0-70.2C80.3 65.9 65 81.2 65 100c0 18.8 15.3 34.1 34.1 34.1 18.8 0 34.1-15.3 34.1-34.1 0-18.8-15.3-34.1-34.1-34.1z" fill="#ee6232"/>
  </g>
</svg>