<svg xmlns:svg="http://www.w3.org/2000/svg" xmlns="http://www.w3.org/2000/svg" height="72.2" width="72.2" xml:space="preserve" enable-background="new 0 0 200 200" viewBox="0 0 72.2 72.2" y="0" x="0" id="Layer_1" version="1.1">
  <metadata id="metadata5310"/>
  <defs id="defs5308"/>
  <g transform="translate(-63.9,-63.9)" id="g5278">
    <path id="path5280" d="m92.2 95.8c-3 0-5.5-2.5-5.5-5.5 0-3 2.5-5.5 5.5-5.5 3 0 5.5 2.5 5.5 5.5 0 3-2.5 5.5-5.5 5.5zm0-9c-1.9 0-3.5 1.6-3.5 3.5 0 1.9 1.6 3.5 3.5 3.5 1.9 0 3.5-1.6 3.5-3.5 0-1.9-1.6-3.5-3.5-3.5z" fill="#ee6232"/>
  </g>
  <g transform="translate(-63.9,-63.9)" id="g5282">
    <path id="path5284" d="m107.7 95.8c-3 0-5.5-2.5-5.5-5.5 0-3 2.5-5.5 5.5-5.5 3 0 5.5 2.5 5.5 5.5 0 3-2.5 5.5-5.5 5.5zm0-9c-1.9 0-3.5 1.6-3.5 3.5 0 1.9 1.6 3.5 3.5 3.5 1.9 0 3.5-1.6 3.5-3.5 0-1.9-1.6-3.5-3.5-3.5z" fill="#ee6232"/>
  </g>
  <g transform="translate(-63.9,-63.9)" id="g5286">
    <path id="path5288" d="m98.7 97.8c0.4-0.1 0.9-0.2 1.3-0.2 0.2 0 0.5 0 0.7 0-0.5-2.3-2.6-4-5-4l-6.9 0c-2.8 0-5.2 2.3-5.2 5.2l0 4.3 2 0 0-4.3c0-1.7 1.4-3.2 3.2-3.2l6.9 0c1.4 0.1 2.6 1 3 2.2z" fill="#ee6232"/>
  </g>
  <g transform="translate(-63.9,-63.9)" id="g5290">
    <path id="path5292" d="m111.2 93.7-6.9 0c-2.3 0-4.2 1.5-4.9 3.5 0.7 0.1 1.3 0.3 1.9 0.6 0.4-1.2 1.6-2.1 3-2.1l6.9 0c1.7 0 3.2 1.4 3.2 3.2l0 4.3 2 0 0-4.3C116.3 96 114 93.7 111.2 93.7Z" fill="#ee6232"/>
  </g>
  <g transform="translate(-63.9,-63.9)" id="g5294">
    <path id="path5296" d="m100.1 107.3c-3 0-5.5-2.5-5.5-5.5 0-3 2.5-5.5 5.5-5.5 3 0 5.5 2.5 5.5 5.5 0 3-2.5 5.5-5.5 5.5zm0-9c-1.9 0-3.5 1.6-3.5 3.5 0 1.9 1.6 3.5 3.5 3.5 1.9 0 3.5-1.6 3.5-3.5 0-1.9-1.6-3.5-3.5-3.5z" fill="#ee6232"/>
  </g>
  <g transform="translate(-63.9,-63.9)" id="g5298">
    <path id="path5300" d="m93.5 114.7 0-4.3c0-1.7 1.4-3.2 3.2-3.2l6.9 0c1.7 0 3.2 1.4 3.2 3.2l0 4.3 2 0 0-4.3c0-2.8-2.3-5.2-5.2-5.2l-6.9 0c-2.8 0-5.2 2.3-5.2 5.2l0 4.3 2 0z" fill="#ee6232"/>
  </g>
  <g transform="translate(-63.9,-63.9)" id="g5302">
    <path id="path5304" d="m100 136.1c-19.9 0-36.1-16.2-36.1-36.1 0-19.9 16.2-36.1 36.1-36.1 19.9 0 36.1 16.2 36.1 36.1 0 19.9-16.2 36.1-36.1 36.1zm0-70.2c-18.8 0-34.1 15.3-34.1 34.1 0 18.8 15.3 34.1 34.1 34.1 18.8 0 34.1-15.3 34.1-34.1 0-18.8-15.3-34.1-34.1-34.1z" fill="#ee6232"/>
  </g>
</svg>