<svg width="0" height="0" position="absolute"><symbol id="chain-v2-icon" viewBox="0 0 18 18" xmlns="http://www.w3.org/2000/svg"><g><path d="M10.25 5.78125C11.1667 6.71875 11.625 7.84375 11.625 9.15625C11.625 10.4688 11.1667 11.5833 10.25 12.5L8.125 14.625C7.20833 15.5417 6.09375 16 4.78125 16C3.46875 16 2.34375 15.5312 1.40625 14.5938C0.489583 13.6771 0.03125 12.5625 0.03125 11.25C0.03125 9.9375 0.489583 8.82292 1.40625 7.90625L2.59375 6.71875C2.73958 6.57292 2.90625 6.54167 3.09375 6.625C3.30208 6.70833 3.41667 6.85417 3.4375 7.0625C3.45833 7.625 3.5625 8.17708 3.75 8.71875C3.8125 8.90625 3.77083 9.07292 3.625 9.21875L3.21875 9.65625C2.78125 10.0938 2.55208 10.625 2.53125 11.25C2.53125 11.8542 2.75 12.375 3.1875 12.8125C3.625 13.2708 4.15625 13.5 4.78125 13.5C5.40625 13.5 5.9375 13.2812 6.375 12.8438L8.46875 10.75C8.90625 10.3125 9.125 9.78125 9.125 9.15625C9.125 8.53125 8.90625 8 8.46875 7.5625C8.36458 7.45833 8.26042 7.36458 8.15625 7.28125C8.01042 7.19792 7.9375 7.07292 7.9375 6.90625C7.91667 6.53125 8.03125 6.21875 8.28125 5.96875L8.96875 5.3125C9.15625 5.10417 9.36458 5.08333 9.59375 5.25C9.82292 5.41667 10.0417 5.59375 10.25 5.78125ZM11.2812 0C12.5938 0 13.7083 0.46875 14.625 1.40625C15.5625 2.32292 16.0312 3.4375 16.0312 4.75C16.0312 6.0625 15.5729 7.17708 14.6562 8.09375L13.4688 9.28125C13.3229 9.42708 13.1458 9.45833 12.9375 9.375C12.75 9.29167 12.6458 9.14583 12.625 8.9375C12.6042 8.375 12.5 7.82292 12.3125 7.28125C12.25 7.09375 12.2917 6.92708 12.4375 6.78125L12.8438 6.34375C13.2812 5.90625 13.5 5.38542 13.5 4.78125C13.5208 4.15625 13.3125 3.625 12.875 3.1875C12.4375 2.72917 11.9062 2.5 11.2812 2.5C10.6562 2.5 10.125 2.71875 9.6875 3.15625L7.59375 5.25C7.15625 5.6875 6.9375 6.21875 6.9375 6.84375C6.9375 7.46875 7.15625 8 7.59375 8.4375C7.69792 8.54167 7.80208 8.63542 7.90625 8.71875C8.05208 8.80208 8.125 8.92708 8.125 9.09375C8.14583 9.46875 8.03125 9.78125 7.78125 10.0312L7.09375 10.6875C6.90625 10.8958 6.69792 10.9167 6.46875 10.75C6.23958 10.5833 6.02083 10.4062 5.8125 10.2188C4.89583 9.28125 4.4375 8.15625 4.4375 6.84375C4.4375 5.53125 4.89583 4.41667 5.8125 3.5L7.9375 1.375C8.85417 0.458333 9.96875 0 11.2812 0Z"></path></g></symbol><symbol id="check-bold-icon" viewBox="0 0 23 19" xmlns="http://www.w3.org/2000/svg"><rect x="4.521" y="7.18127" width="10.7389" height="5.35116" rx="2.67558" transform="rotate(45 4.521 7.18127)"></rect><rect x="22.4067" y="4.47937" width="19.5946" height="5.35116" rx="2.67558" transform="rotate(135 22.4067 4.47937)"></rect></symbol><symbol id="close-bold-icon" viewBox="0 0 21 22" xmlns="http://www.w3.org/2000/svg"><rect x="20.792" y="4.82617" width="23.8676" height="5.35116" rx="2.67558" transform="rotate(135 20.792 4.82617)"></rect><rect x="4.04468" y="0.913086" width="23.7379" height="5.35116" rx="2.67558" transform="rotate(45 4.04468 0.913086)"></rect></symbol><symbol id="close-rounded-icon" viewBox="0 0 16 16" xmlns="http://www.w3.org/2000/svg"><path fill-rule="evenodd" clip-rule="evenodd" d="M1.60669 0.275664C1.23913 -0.0918878 0.643216 -0.091888 0.275664 0.275664C-0.0918878 0.643215 -0.091888 1.23913 0.275664 1.60669L6.66897 7.99999L0.41757 14.2514C0.0500184 14.6189 0.0500186 15.2149 0.41757 15.5824C0.785122 15.95 1.38104 15.95 1.74859 15.5824L7.99999 9.33101L14.2514 15.5824C14.6189 15.95 15.2149 15.95 15.5824 15.5824C15.95 15.2149 15.95 14.6189 15.5824 14.2514L9.33101 7.99999L15.7243 1.60669C16.0919 1.23913 16.0919 0.643215 15.7243 0.275664C15.3568 -0.091888 14.7609 -0.0918878 14.3933 0.275664L7.99999 6.66897L1.60669 0.275664Z" fill-opacity="1"></path></symbol><symbol id="close-icon" class="m-menu__icon m-menu__icon--close" version="1.1" xmlns="http://www.w3.org/2000/svg" xmlns:xlink="http://www.w3.org/1999/xlink" x="0px" y="0px" viewBox="0 0 612 612" style="enable-background:new 0 0 612 612;" xml:space="preserve"><g><g><g><polygon points="612,36.004 576.521,0.603 306,270.608 35.478,0.603 0,36.004 270.522,306.011 0,575.997 35.478,611.397
          306,341.411 576.521,611.397 612,575.997 341.459,306.011"></polygon></g></g></g></symbol><symbol id="fb-v2-icon" viewBox="0 0 17 31" xmlns="http://www.w3.org/2000/svg"><path fill-rule="evenodd" clip-rule="evenodd" d="M10.7107 30.2475V16.8083H15.2276L15.904 11.5708H10.7107V8.227C10.7107 6.71062 11.1323 5.67726 13.3097 5.67726L16.0868 5.67605V0.991586C15.6065 0.927758 13.958 0.785156 12.0401 0.785156C8.03609 0.785156 5.29485 3.22596 5.29485 7.7083V11.5708H0.766357V16.8083H5.29485V30.2475H10.7107Z"></path></symbol><symbol id="fb-icon" xmlns="http://www.w3.org/2000/svg" viewBox="0 0 18 18"><g><g><path d="M16.629 0H.97A.971.971 0 0 0 0 .971V16.63c0 .536.435.971.971.971h8.43v-6.816H7.107V8.128h2.294V6.17c0-2.273 1.388-3.51 3.416-3.51.971 0 1.806.072 2.05.104v2.376H13.46c-1.103 0-1.316.524-1.316 1.293v1.696h2.63l-.343 2.656h-2.287V17.6h4.485a.971.971 0 0 0 .97-.971V.97A.971.971 0 0 0 16.63 0"></path></g></g></symbol><symbol id="ok-icon" xmlns:dc="http://purl.org/dc/elements/1.1/" xmlns:cc="http://creativecommons.org/ns#" xmlns:rdf="http://www.w3.org/1999/02/22-rdf-syntax-ns#" xmlns:svg="http://www.w3.org/2000/svg" xmlns="http://www.w3.org/2000/svg" xmlns:sodipodi="http://sodipodi.sourceforge.net/DTD/sodipodi-0.dtd" xmlns:inkscape="http://www.inkscape.org/namespaces/inkscape" viewBox="0 0 12.18987 21.040392" version="1.1" sodipodi:docname="ok-icon.svg" inkscape:version="0.92.3 (2405546, 2018-03-11)"><metadata><rdf:RDF><cc:Work rdf:about="0"><dc:format>image/svg+xml</dc:format><dc:type rdf:resource="http://purl.org/dc/dcmitype/StillImage"></dc:type></cc:Work></rdf:RDF></metadata><sodipodi:namedview pagecolor="#ffffff" bordercolor="#666666" borderopacity="1" objecttolerance="10" gridtolerance="10" guidetolerance="10" inkscape:pageopacity="0" inkscape:pageshadow="2" inkscape:window-width="1920" inkscape:window-height="1011" showgrid="false" fit-margin-top="0" fit-margin-left="0" fit-margin-right="0" fit-margin-bottom="0" inkscape:zoom="22.47619" inkscape:cx="7.8764246" inkscape:cy="10.500168" inkscape:window-x="0" inkscape:window-y="0" inkscape:window-maximized="1" inkscape:current-layer="svg12"></sodipodi:namedview><g transform="translate(0.80206218)"><path inkscape:connector-curvature="0" d="M 5.43,10.86 A 5.436,5.436 0 0 1 0,5.43 5.437,5.437 0 0 1 5.43,0 5.436,5.436 0 0 1 10.861,5.431 5.435,5.435 0 0 1 5.431,10.86 m 0,-7.677 A 2.251,2.251 0 0 0 3.182,5.43 2.251,2.251 0 0 0 5.431,7.68 2.251,2.251 0 0 0 7.679,5.43 2.251,2.251 0 0 0 5.431,3.182"></path></g><g transform="translate(0.00121473,0.04449153)"><path inkscape:connector-curvature="0" d="m 8.291,15.245 a 10.157,10.157 0 0 0 3.154,-1.306 1.591435,1.591435 0 0 0 -1.695,-2.694 6.897,6.897 0 0 1 -7.312,0 1.591435,1.591435 0 1 0 -1.695,2.694 10.176,10.176 0 0 0 3.153,1.306 L 0.861,18.28 a 1.5909903,1.5909903 0 0 0 2.25,2.25 l 2.983,-2.984 2.984,2.984 a 1.59,1.59 0 0 0 2.249,0 1.588,1.588 0 0 0 0,-2.25 z"></path></g></symbol><symbol id="play-icon" viewBox="0 0 13 15" xmlns="http://www.w3.org/2000/svg"><path fill-rule="evenodd" clip-rule="evenodd" d="M12.6646 6.91576L1.0062 0.0815217C0.912156 0.0271739 0.791412 0 0.670802 0C0.549923 0 0.442595 0.0271739 0.335401 0.0951087C0.13416 0.217391 0 0.434783 0 0.679348V14.3207C0 14.5652 0.13416 14.7825 0.335401 14.9049C0.442595 14.9592 0.549923 15 0.670802 15C0.791412 15 0.89874 14.9728 1.0062 14.9049L12.6646 8.08424C12.8658 7.96196 13 7.74457 13 7.5C13 7.25543 12.8658 7.03804 12.6646 6.91576Z"></path></symbol><symbol id="search-icon" version="1.1" xmlns="http://www.w3.org/2000/svg" xmlns:xlink="http://www.w3.org/1999/xlink" x="0px" y="0px" viewBox="0 0 56.966 56.966" style="enable-background:new 0 0 56.966 56.966;" xml:space="preserve"><path d="M55.146,51.887L41.588,37.786c3.486-4.144,5.396-9.358,5.396-14.786c0-12.682-10.318-23-23-23s-23,10.318-23,23
    s10.318,23,23,23c4.761,0,9.298-1.436,13.177-4.162l13.661,14.208c0.571,0.593,1.339,0.92,2.162,0.92
    c0.779,0,1.518-0.297,2.079-0.837C56.255,54.982,56.293,53.08,55.146,51.887z M23.984,6c9.374,0,17,7.626,17,17s-7.626,17-17,17
    s-17-7.626-17-17S14.61,6,23.984,6z"></path></symbol><symbol id="share-icon" version="1.1" xmlns="http://www.w3.org/2000/svg" xmlns:xlink="http://www.w3.org/1999/xlink" x="0px" y="0px" viewBox="0 0 74.7 88.1" style="enable-background:new 0 0 74.7 88.1;" xml:space="preserve"><g><path class="st0" d="M59.7,58.2c-3.5,0-6.6,1.2-9.2,3.2L29.2,49.6c0.5-1.5,0.8-3.1,0.8-4.7c0-1.7-0.3-3.3-0.8-4.8l22.4-12.5c2.3,1.5,5.1,2.4,8.1,2.4c8.3,0,15-6.7,15-15S68,0,59.7,0s-15,6.7-15,15c0,2.3,0.5,4.5,1.5,6.4l-21.5,12c-2.6-2.2-6-3.6-9.7-3.6c-8.3,0-15,6.7-15,15s6.7,15,15,15c3.7,0,7.1-1.4,9.7-3.6l21,11.6c-0.6,1.7-1,3.5-1,5.3c0,8.3,6.7,15,15,15s15-6.7,15-15S67.9,58.2,59.7,58.2z"></path></g></symbol><symbol id="tw-icon" xmlns="http://www.w3.org/2000/svg" viewBox="0 0 18 15"><g><g><path d="M5.534 14.3c6.64 0 10.27-5.501 10.27-10.271 0-.157-.002-.312-.01-.467a7.344 7.344 0 0 0 1.801-1.869 7.208 7.208 0 0 1-2.073.568A3.623 3.623 0 0 0 17.11.264a7.233 7.233 0 0 1-2.292.877 3.61 3.61 0 0 0-6.152 3.292c-3-.151-5.661-1.588-7.441-3.772a3.607 3.607 0 0 0 1.118 4.82 3.583 3.583 0 0 1-1.636-.452v.046a3.611 3.611 0 0 0 2.896 3.539 3.62 3.62 0 0 1-1.63.062 3.614 3.614 0 0 0 3.372 2.507A7.244 7.244 0 0 1 .86 12.73c-.291 0-.578-.017-.861-.05A10.22 10.22 0 0 0 5.534 14.3"></path></g></g></symbol><symbol id="vk-icon" xmlns="http://www.w3.org/2000/svg" viewBox="0 0 20 12"><g><g><path d="M16.083 5.558s2.55-3.598 2.804-4.78c.084-.423-.101-.66-.54-.66h-2.214c-.506 0-.692.22-.844.54 0 0-1.197 2.55-2.653 4.157-.467.52-.705.675-.963.675-.208 0-.304-.173-.304-.642V.743c0-.574-.067-.743-.54-.743H7.28c-.27 0-.44.157-.44.372 0 .54.829.663.829 2.128v3.024c0 .608-.034.845-.321.845-.76 0-2.568-2.619-3.582-5.592C3.565.17 3.345 0 2.771 0H.557C.237 0 0 .22 0 .54c0 .592.693 3.329 3.413 6.995 1.824 2.466 4.223 3.8 6.385 3.8 1.318 0 1.639-.219 1.639-.777V8.666c0-.473.186-.675.456-.675.304 0 .84.097 2.095 1.334 1.486 1.42 1.588 2.01 2.399 2.01h2.483c.253 0 .49-.118.49-.54 0-.558-.727-1.554-1.841-2.737-.457-.608-1.2-1.267-1.436-1.57-.338-.356-.237-.558 0-.93"></path></g></g></symbol><symbol id="warning-icon" viewBox="0 0 5 23" xmlns="http://www.w3.org/2000/svg"><rect x="5" width="15" height="5" rx="2.5" transform="rotate(90 5 0)"></rect><rect x="5" y="18" width="5" height="5" rx="2.5" transform="rotate(90 5 18)"></rect></symbol><symbol id="chain-icon" xmlns="http://www.w3.org/2000/svg" viewBox="0 0 25 25"><g><g><path d="M6.64 11.035l.02-.02A1.036 1.036 0 0 1 8.106 12.5l-5.128 5.128a3.078 3.078 0 0 0 0 4.395 3.078 3.078 0 0 0 4.395 0l5.372-5.372a3.079 3.079 0 0 0 0-4.395c-.39-.302-.727-.638-.802-1.068-.099-.564.278-1.1.842-1.2.563-.098 1.327.24 1.425.803a5.192 5.192 0 0 1 0 7.325l-5.372 5.372a5.191 5.191 0 0 1-7.325 0 5.191 5.191 0 0 1 0-7.325zm9.522-9.522a5.191 5.191 0 0 1 7.326 0 5.19 5.19 0 0 1 0 7.324l-5.128 5.128-.024.024a1.036 1.036 0 0 1-1.441-1.489l5.128-5.128a3.079 3.079 0 0 0 0-4.395 3.078 3.078 0 0 0-4.395 0L12.256 8.35a3.078 3.078 0 0 0 0 4.395l.158-.158a1.26 1.26 0 0 1 0 1.781c-.492.492-1.131.334-1.623-.158a5.191 5.191 0 0 1 0-7.325z"></path></g></g></symbol></svg>