<svg xmlns="http://www.w3.org/2000/svg" width="20" height="17" viewBox="0 0 20 17">
    <path fill="#FFF" fill-rule="evenodd" d="M6.288 16.25c7.546 0 11.672-6.251 11.672-11.672 0-.177-.004-.354-.012-.53a8.345 8.345 0 0 0 2.047-2.124 8.19 8.19 0 0 1-2.356.646A4.116 4.116 0 0 0 19.443.3a8.22 8.22 0 0 1-2.605.996 4.103 4.103 0 0 0-6.99 3.741A11.647 11.647 0 0 1 1.391.751a4.088 4.088 0 0 0-.556 2.062 4.1 4.1 0 0 0 1.826 3.415 4.072 4.072 0 0 1-1.858-.513l-.001.052a4.104 4.104 0 0 0 3.29 4.022 4.114 4.114 0 0 1-1.852.07 4.107 4.107 0 0 0 3.833 2.85 8.232 8.232 0 0 1-5.095 1.755c-.331 0-.658-.019-.979-.057a11.613 11.613 0 0 0 6.288 1.843"/>
</svg>
