<svg xmlns="http://www.w3.org/2000/svg" width="22" height="13" viewBox="0 0 22 13">
    <path fill="#FFF" fill-rule="evenodd" d="M18.276 6.315s2.899-4.089 3.187-5.433c.096-.48-.116-.748-.615-.748h-2.515c-.575 0-.787.25-.96.614 0 0-1.36 2.897-3.013 4.723-.532.59-.802.767-1.095.767-.236 0-.345-.197-.345-.73V.845c0-.653-.077-.845-.614-.845H8.274c-.307 0-.499.179-.499.423 0 .614.94.753.94 2.419v3.436c0 .69-.038.96-.364.96-.864 0-2.918-2.976-4.07-6.355C4.051.192 3.801 0 3.148 0H.634C.269 0 0 .25 0 .614c0 .671.787 3.781 3.878 7.947 2.073 2.803 4.8 4.32 7.256 4.32 1.498 0 1.863-.25 1.863-.883v-2.15c0-.538.21-.768.518-.768.345 0 .955.11 2.38 1.516 1.69 1.613 1.805 2.285 2.726 2.285h2.822c.288 0 .557-.135.557-.615 0-.633-.825-1.766-2.092-3.11-.519-.69-1.363-1.44-1.632-1.785-.384-.403-.269-.634 0-1.056"/>
</svg>
